<svg id="kity_svg_6" xmlns="http://www.w3.org/2000/svg" xmlns:xlink="http://www.w3.org/1999/xlink" version="1.1" width="1737" height="1067" style="background: rgb(251, 251, 251); visibility: visible;" viewBox="0 0 1737 1067"><defs id="kity_defs_7"><linearGradient id="kity_linearGradient_17" x1="0" y1="0" x2="0" y2="1"><stop id="kity_stop_18" offset="0" stop-color="rgb(255, 255, 255)"></stop><stop id="kity_stop_19" offset="1" stop-color="rgb(204, 204, 204)"></stop></linearGradient><marker id="kity_marker_2" orient="auto" refX="6" refY="0" viewBox="-7 -7 14 14" markerWidth="7" markerHeight="7" markerUnits="userSpaceOnUse"><path id="kity_path_3" fill="rgb(115, 161, 191)" stroke="none" d="M6,0A6,6,0,1,1,-6,0A6,6,0,1,1,6,0"></path></marker></defs><g id="kity_g_8"><g id="minder1" text-rendering="geometricPrecision"><g id="minder_connect_group1"><path id="kity_path_31" fill="none" stroke="rgb(115, 161, 191)" stroke-width="1" d="M924,739.5A170.5,167,0,0,1,1094.5,572.5"></path><path id="kity_path_33" fill="none" stroke="rgb(115, 161, 191)" stroke-width="1" d="M1165.5,572.5C1180.5,572.5,1180.5,508.5,1195.5,508.5L1458.5,508.5"></path><path id="kity_path_35" fill="none" stroke="rgb(115, 161, 191)" stroke-width="1" d="M1165.5,572.5C1180.5,572.5,1180.5,560.5,1195.5,560.5L1502.5,560.5"></path><path id="kity_path_37" fill="none" stroke="rgb(115, 161, 191)" stroke-width="1" d="M1165.5,572.5C1180.5,572.5,1180.5,612.5,1195.5,612.5L1477.5,612.5"></path><path id="kity_path_39" fill="none" stroke="rgb(115, 161, 191)" stroke-width="1" d="M1165.5,572.5C1180.5,572.5,1180.5,664.5,1195.5,664.5L1517.5,664.5"></path><path id="kity_path_41" fill="none" stroke="rgb(115, 161, 191)" stroke-width="1" d="M924,739.5A170.5,168,0,0,0,1094.5,907.5"></path><path id="kity_path_43" fill="none" stroke="rgb(115, 161, 191)" stroke-width="1" d="M1164.5,907.5C1179.5,907.5,1179.5,804.5,1194.5,804.5L1332.5,804.5"></path><path id="kity_path_45" fill="none" stroke="rgb(115, 161, 191)" stroke-width="1" d="M1332.5,804.5C1347.5,804.5,1347.5,804.5,1362.5,804.5L1417.5,804.5"></path><path id="kity_path_47" fill="none" stroke="rgb(115, 161, 191)" stroke-width="1" d="M1417.5,804.5C1432.5,804.5,1432.5,726.5,1447.5,726.5L1605.5,726.5"></path><path id="kity_path_49" fill="none" stroke="rgb(115, 161, 191)" stroke-width="1" d="M1417.5,804.5C1432.5,804.5,1432.5,778.5,1447.5,778.5L1707.5,778.5"></path><path id="kity_path_51" fill="none" stroke="rgb(115, 161, 191)" stroke-width="1" d="M1417.5,804.5C1432.5,804.5,1432.5,830.5,1447.5,830.5L1533.5,830.5"></path><path id="kity_path_53" fill="none" stroke="rgb(115, 161, 191)" stroke-width="1" d="M1417.5,804.5C1432.5,804.5,1432.5,882.5,1447.5,882.5L1664.5,882.5"></path><path id="kity_path_55" fill="none" stroke="rgb(115, 161, 191)" stroke-width="1" d="M1164.5,907.5C1179.5,907.5,1179.5,960.5,1194.5,960.5L1334.5,960.5"></path><path id="kity_path_57" fill="none" stroke="rgb(115, 161, 191)" stroke-width="1" d="M1334.5,960.5C1349.5,960.5,1349.5,960.5,1364.5,960.5L1419.5,960.5"></path><path id="kity_path_59" fill="none" stroke="rgb(115, 161, 191)" stroke-width="1" d="M1419.5,960.5C1434.5,960.5,1434.5,934.5,1449.5,934.5L1717.5,934.5"></path><path id="kity_path_61" fill="none" stroke="rgb(115, 161, 191)" stroke-width="1" d="M1419.5,960.5C1434.5,960.5,1434.5,986.5,1449.5,986.5L1607.5,986.5"></path><path id="kity_path_63" fill="none" stroke="rgb(115, 161, 191)" stroke-width="1" d="M1164.5,907.5C1179.5,907.5,1179.5,1038.5,1194.5,1038.5L1332.5,1038.5"></path><path id="kity_path_65" fill="none" stroke="rgb(115, 161, 191)" stroke-width="1" d="M1332.5,1038.5C1347.5,1038.5,1347.5,1038.5,1362.5,1038.5L1417.5,1038.5"></path><path id="kity_path_67" fill="none" stroke="rgb(115, 161, 191)" stroke-width="1" d="M1417.5,1038.5C1432.5,1038.5,1432.5,1038.5,1447.5,1038.5L1519.5,1038.5"></path><path id="kity_path_69" fill="none" stroke="rgb(115, 161, 191)" stroke-width="1" d="M924,739.5A170.5,240,0,0,0,753.5,499.5"></path><path id="kity_path_71" fill="none" stroke="rgb(115, 161, 191)" stroke-width="1" d="M668.5,499.5C653.5,499.5,653.5,227.5,638.5,227.5L508.5,227.5"></path><path id="kity_path_73" fill="none" stroke="rgb(115, 161, 191)" stroke-width="1" d="M508.5,227.5C493.5,227.5,493.5,123.5,478.5,123.5L423.5,123.5"></path><path id="kity_path_75" fill="none" stroke="rgb(115, 161, 191)" stroke-width="1" d="M423.5,123.5C408.5,123.5,408.5,45.5,393.5,45.5L315.5,45.5"></path><path id="kity_path_77" fill="none" stroke="rgb(115, 161, 191)" stroke-width="1" d="M423.5,123.5C408.5,123.5,408.5,97.5,393.5,97.5L276.5,97.5"></path><path id="kity_path_79" fill="none" stroke="rgb(115, 161, 191)" stroke-width="1" d="M423.5,123.5C408.5,123.5,408.5,149.5,393.5,149.5L188.5,149.5"></path><path id="kity_path_81" fill="none" stroke="rgb(115, 161, 191)" stroke-width="1" d="M423.5,123.5C408.5,123.5,408.5,201.5,393.5,201.5L315.5,201.5"></path><path id="kity_path_83" fill="none" stroke="rgb(115, 161, 191)" stroke-width="1" d="M508.5,227.5C493.5,227.5,493.5,331.5,478.5,331.5L371.5,331.5"></path><path id="kity_path_85" fill="none" stroke="rgb(115, 161, 191)" stroke-width="1" d="M371.5,331.5C356.5,331.5,356.5,253.5,341.5,253.5L261.5,253.5"></path><path id="kity_path_87" fill="none" stroke="rgb(115, 161, 191)" stroke-width="1" d="M371.5,331.5C356.5,331.5,356.5,305.5,341.5,305.5L216.5,305.5"></path><path id="kity_path_89" fill="none" stroke="rgb(115, 161, 191)" stroke-width="1" d="M371.5,331.5C356.5,331.5,356.5,357.5,341.5,357.5L77.5,357.5"></path><path id="kity_path_91" fill="none" stroke="rgb(115, 161, 191)" stroke-width="1" d="M371.5,331.5C356.5,331.5,356.5,409.5,341.5,409.5L263.5,409.5"></path><path id="kity_path_93" fill="none" stroke="rgb(115, 161, 191)" stroke-width="1" d="M668.5,499.5C653.5,499.5,653.5,539.5,638.5,539.5L513.5,539.5"></path><path id="kity_path_95" fill="none" stroke="rgb(115, 161, 191)" stroke-width="1" d="M513.5,539.5C498.5,539.5,498.5,487.5,483.5,487.5L428.5,487.5"></path><path id="kity_path_97" fill="none" stroke="rgb(115, 161, 191)" stroke-width="1" d="M428.5,487.5C413.5,487.5,413.5,461.5,398.5,461.5L320.5,461.5"></path><path id="kity_path_99" fill="none" stroke="rgb(115, 161, 191)" stroke-width="1" d="M428.5,487.5C413.5,487.5,413.5,513.5,398.5,513.5L264.5,513.5"></path><path id="kity_path_101" fill="none" stroke="rgb(115, 161, 191)" stroke-width="1" d="M513.5,539.5C498.5,539.5,498.5,591.5,483.5,591.5L376.5,591.5"></path><path id="kity_path_103" fill="none" stroke="rgb(115, 161, 191)" stroke-width="1" d="M376.5,591.5C361.5,591.5,361.5,565.5,346.5,565.5L90.5,565.5"></path><path id="kity_path_105" fill="none" stroke="rgb(115, 161, 191)" stroke-width="1" d="M376.5,591.5C361.5,591.5,361.5,617.5,346.5,617.5L268.5,617.5"></path><path id="kity_path_107" fill="none" stroke="rgb(115, 161, 191)" stroke-width="1" d="M668.5,499.5C653.5,499.5,653.5,799.5,638.5,799.5L513.5,799.5"></path><path id="kity_path_109" fill="none" stroke="rgb(115, 161, 191)" stroke-width="1" d="M513.5,799.5C498.5,799.5,498.5,721.5,483.5,721.5L428.5,721.5"></path><path id="kity_path_111" fill="none" stroke="rgb(115, 161, 191)" stroke-width="1" d="M428.5,721.5C413.5,721.5,413.5,669.5,398.5,669.5L310.5,669.5"></path><path id="kity_path_113" fill="none" stroke="rgb(115, 161, 191)" stroke-width="1" d="M428.5,721.5C413.5,721.5,413.5,721.5,398.5,721.5L263.5,721.5"></path><path id="kity_path_115" fill="none" stroke="rgb(115, 161, 191)" stroke-width="1" d="M428.5,721.5C413.5,721.5,413.5,773.5,398.5,773.5L258.5,773.5"></path><path id="kity_path_117" fill="none" stroke="rgb(115, 161, 191)" stroke-width="1" d="M513.5,799.5C498.5,799.5,498.5,877.5,483.5,877.5L376.5,877.5"></path><path id="kity_path_119" fill="none" stroke="rgb(115, 161, 191)" stroke-width="1" d="M376.5,877.5C361.5,877.5,361.5,825.5,346.5,825.5L34.5,825.5"></path><path id="kity_path_121" fill="none" stroke="rgb(115, 161, 191)" stroke-width="1" d="M376.5,877.5C361.5,877.5,361.5,877.5,346.5,877.5L20.5,877.5"></path><path id="kity_path_123" fill="none" stroke="rgb(115, 161, 191)" stroke-width="1" d="M376.5,877.5C361.5,877.5,361.5,929.5,346.5,929.5L268.5,929.5"></path><path id="kity_path_125" fill="none" stroke="rgb(115, 161, 191)" stroke-width="1" d="M924,739.5A170.5,294,0,0,1,753.5,1033.5"></path><path id="kity_path_127" fill="none" stroke="rgb(115, 161, 191)" stroke-width="1" d="M681.5,1033.5C666.5,1033.5,666.5,1047.5,651.5,1047.5L519.5,1047.5"></path></g><g id="minder_node1"><path id="node_outline1" fill="rgb(115, 161, 191)" stroke="rgb(115, 161, 191)" d="M876.5,719.5h95a5,5,0,0,1,5,5v30a5,5,0,0,1,-5,5h-95a5,5,0,0,1,-5,-5v-30a5,5,0,0,1,5,-5z" stroke-width="3"></path><g id="node_text1" fill="white"><text id="kity_text_22" text-rendering="inherit" font-size="16" dy=".8em" y="729.0999999046326" x="895.5">context</text></g></g><g id="kity_g_12"><path id="kity_path_13" fill="none" stroke="none" d="M895.5,739.5h0v0h0z"></path></g><g id="kity_g_14"><path id="kity_path_15" fill="none" stroke="none" d="M895.5,739.5h0v0h0z"></path><path id="kity_path_16" fill="none" stroke="none"></path></g><g id="minder_node2"><g id="node_expander5" style="cursor: pointer;"><path id="kity_path_288" fill="white" stroke="gray" d="M1095.5,572.5A6,6,0,1,1,1083.5,572.5A6,6,0,1,1,1095.5,572.5"></path><path id="kity_path_289" fill="none" stroke="gray" d="M1085,572.5L1094,572.5"></path></g><path id="node_outline6" fill="rgb(238, 243, 246)" stroke="rgb(115, 161, 191)" d="M1099.5,559.5h63a3,3,0,0,1,3,3v20a3,3,0,0,1,-3,3h-63a3,3,0,0,1,-3,-3v-20a3,3,0,0,1,3,-3z" stroke-width="1"></path><g id="node_text6" fill="black"><text id="kity_text_137" text-rendering="inherit" font-size="14" dy=".8em" y="563.4000000953674" x="1116.5">方法</text></g></g><g id="minder_node3"><g id="node_expander1" style="cursor: pointer;" display="none"><path id="kity_path_276" fill="white" stroke="gray" d="M1205.5,494.5A6,6,0,1,1,1193.5,494.5A6,6,0,1,1,1205.5,494.5"></path><path id="kity_path_277" fill="none" stroke="gray"></path></g><path id="node_outline2" fill="none" stroke="none" d="M1210.5,483.5h243a5,5,0,0,1,5,5v12a5,5,0,0,1,-5,5h-243a5,5,0,0,1,-5,-5v-12a5,5,0,0,1,5,-5z" stroke-width="3"></path><g id="node_text2" fill="black"><text id="kity_text_129" text-rendering="inherit" font-size="12" dy=".8em" y="486.7000000476837" x="1215.5">newCancelCtx(parent Context) cancelCtx</text></g></g><g id="minder_node4"><g id="node_expander2" style="cursor: pointer;" display="none"><path id="kity_path_279" fill="white" stroke="gray" d="M1205.5,546.5A6,6,0,1,1,1193.5,546.5A6,6,0,1,1,1205.5,546.5"></path><path id="kity_path_280" fill="none" stroke="gray"></path></g><path id="node_outline3" fill="none" stroke="none" d="M1210.5,535.5h287a5,5,0,0,1,5,5v12a5,5,0,0,1,-5,5h-287a5,5,0,0,1,-5,-5v-12a5,5,0,0,1,5,-5z" stroke-width="3"></path><g id="node_text3" fill="black"><text id="kity_text_131" text-rendering="inherit" font-size="12" dy=".8em" y="538.7000000476837" x="1215.5">propagateCancel(parent Context, child canceler)</text></g></g><g id="minder_node5"><g id="node_expander3" style="cursor: pointer;" display="none"><path id="kity_path_282" fill="white" stroke="gray" d="M1205.5,598.5A6,6,0,1,1,1193.5,598.5A6,6,0,1,1,1205.5,598.5"></path><path id="kity_path_283" fill="none" stroke="gray"></path></g><path id="node_outline4" fill="none" stroke="none" d="M1210.5,587.5h262a5,5,0,0,1,5,5v12a5,5,0,0,1,-5,5h-262a5,5,0,0,1,-5,-5v-12a5,5,0,0,1,5,-5z" stroke-width="3"></path><g id="node_text4" fill="black"><text id="kity_text_133" text-rendering="inherit" font-size="12" dy=".8em" y="590.7000000476837" x="1215.5">removeChild(parent Context, child canceler)</text></g></g><g id="minder_node6"><g id="node_expander4" style="cursor: pointer;" display="none"><path id="kity_path_285" fill="white" stroke="gray" d="M1205.5,650.5A6,6,0,1,1,1193.5,650.5A6,6,0,1,1,1205.5,650.5"></path><path id="kity_path_286" fill="none" stroke="gray"></path></g><path id="node_outline5" fill="none" stroke="none" d="M1210.5,639.5h302a5,5,0,0,1,5,5v12a5,5,0,0,1,-5,5h-302a5,5,0,0,1,-5,-5v-12a5,5,0,0,1,5,-5z" stroke-width="3"></path><g id="node_text5" fill="black"><text id="kity_text_135" text-rendering="inherit" font-size="12" dy=".8em" y="642.7000000476837" x="1215.5">parentCancelCtx(parent Context) (*cancelCtx, bool)</text></g></g><g id="minder_node7"><g id="node_expander19" style="cursor: pointer;"><path id="kity_path_330" fill="white" stroke="gray" d="M1095.5,907.5A6,6,0,1,1,1083.5,907.5A6,6,0,1,1,1095.5,907.5"></path><path id="kity_path_331" fill="none" stroke="gray" d="M1085,907.5L1094,907.5"></path></g><path id="node_outline20" fill="rgb(238, 243, 246)" stroke="rgb(115, 161, 191)" d="M1099.5,894.5h62a3,3,0,0,1,3,3v20a3,3,0,0,1,-3,3h-62a3,3,0,0,1,-3,-3v-20a3,3,0,0,1,3,-3z" stroke-width="1"></path><g id="node_text20" fill="black"><text id="kity_text_165" text-rendering="inherit" font-size="14" dy=".8em" y="898.4000000953674" x="1116.5">接口</text></g></g><g id="minder_node8"><g id="node_expander11" style="cursor: pointer;"><path id="kity_path_306" fill="white" stroke="gray" d="M1204.5,790.5A6,6,0,1,1,1192.5,790.5A6,6,0,1,1,1204.5,790.5"></path><path id="kity_path_307" fill="none" stroke="gray" d="M1194,790.5L1203,790.5"></path></g><path id="node_outline12" fill="none" stroke="none" d="M1209.5,779.5h118a5,5,0,0,1,5,5v12a5,5,0,0,1,-5,5h-118a5,5,0,0,1,-5,-5v-12a5,5,0,0,1,5,-5z" stroke-width="3"></path><g id="node_text12" fill="black"><text id="kity_text_149" text-rendering="inherit" font-size="12" dy=".8em" font-weight="bold" y="782.7000000476837" x="1214.5">interface: Context</text></g></g><g id="minder_node9"><g id="node_expander10" style="cursor: pointer;"><path id="kity_path_303" fill="white" stroke="gray" d="M1372.5,790.5A6,6,0,1,1,1360.5,790.5A6,6,0,1,1,1372.5,790.5"></path><path id="kity_path_304" fill="none" stroke="gray" d="M1362,790.5L1371,790.5"></path></g><path id="node_outline11" fill="none" stroke="none" d="M1377.5,779.5h35a5,5,0,0,1,5,5v12a5,5,0,0,1,-5,5h-35a5,5,0,0,1,-5,-5v-12a5,5,0,0,1,5,-5z" stroke-width="3"></path><g id="node_text11" fill="black"><text id="kity_text_147" text-rendering="inherit" font-size="12" dy=".8em" y="782.7000000476837" x="1382.5">方法</text></g></g><g id="minder_node10"><g id="node_expander6" style="cursor: pointer;" display="none"><path id="kity_path_291" fill="white" stroke="gray" d="M1457.5,712.5A6,6,0,1,1,1445.5,712.5A6,6,0,1,1,1457.5,712.5"></path><path id="kity_path_292" fill="none" stroke="gray"></path></g><path id="node_outline7" fill="none" stroke="none" d="M1462.5,701.5h138a5,5,0,0,1,5,5v12a5,5,0,0,1,-5,5h-138a5,5,0,0,1,-5,-5v-12a5,5,0,0,1,5,-5z" stroke-width="3"></path><g id="node_text7" fill="black"><text id="kity_text_139" text-rendering="inherit" font-size="12" dy=".8em" y="704.7000000476837" x="1467.5">Done() &lt;-chan struct{}</text></g></g><g id="minder_node11"><g id="node_expander7" style="cursor: pointer;" display="none"><path id="kity_path_294" fill="white" stroke="gray" d="M1457.5,764.5A6,6,0,1,1,1445.5,764.5A6,6,0,1,1,1457.5,764.5"></path><path id="kity_path_295" fill="none" stroke="gray"></path></g><path id="node_outline8" fill="none" stroke="none" d="M1462.5,753.5h240a5,5,0,0,1,5,5v12a5,5,0,0,1,-5,5h-240a5,5,0,0,1,-5,-5v-12a5,5,0,0,1,5,-5z" stroke-width="3"></path><g id="node_text8" fill="black"><text id="kity_text_141" text-rendering="inherit" font-size="12" dy=".8em" y="756.7000000476837" x="1467.5">Deadline() (deadline time.Time, ok bool)</text></g></g><g id="minder_node12"><g id="node_expander8" style="cursor: pointer;" display="none"><path id="kity_path_297" fill="white" stroke="gray" d="M1457.5,816.5A6,6,0,1,1,1445.5,816.5A6,6,0,1,1,1457.5,816.5"></path><path id="kity_path_298" fill="none" stroke="gray"></path></g><path id="node_outline9" fill="none" stroke="none" d="M1462.5,805.5h66a5,5,0,0,1,5,5v12a5,5,0,0,1,-5,5h-66a5,5,0,0,1,-5,-5v-12a5,5,0,0,1,5,-5z" stroke-width="3"></path><g id="node_text9" fill="black"><text id="kity_text_143" text-rendering="inherit" font-size="12" dy=".8em" y="808.7000000476837" x="1467.5">Err() error</text></g></g><g id="minder_node13"><g id="node_expander9" style="cursor: pointer;" display="none"><path id="kity_path_300" fill="white" stroke="gray" d="M1457.5,868.5A6,6,0,1,1,1445.5,868.5A6,6,0,1,1,1457.5,868.5"></path><path id="kity_path_301" fill="none" stroke="gray"></path></g><path id="node_outline10" fill="none" stroke="none" d="M1462.5,857.5h197a5,5,0,0,1,5,5v12a5,5,0,0,1,-5,5h-197a5,5,0,0,1,-5,-5v-12a5,5,0,0,1,5,-5z" stroke-width="3"></path><g id="node_text10" fill="black"><text id="kity_text_145" text-rendering="inherit" font-size="12" dy=".8em" y="860.7000000476837" x="1467.5">Value(key interface{}) interface{}&#xa0;</text></g></g><g id="minder_node14"><g id="node_expander15" style="cursor: pointer;"><path id="kity_path_318" fill="white" stroke="gray" d="M1204.5,946.5A6,6,0,1,1,1192.5,946.5A6,6,0,1,1,1204.5,946.5"></path><path id="kity_path_319" fill="none" stroke="gray" d="M1194,946.5L1203,946.5"></path></g><path id="node_outline16" fill="none" stroke="none" d="M1209.5,935.5h120a5,5,0,0,1,5,5v12a5,5,0,0,1,-5,5h-120a5,5,0,0,1,-5,-5v-12a5,5,0,0,1,5,-5z" stroke-width="3"></path><g id="node_text16" fill="black"><text id="kity_text_157" text-rendering="inherit" font-size="12" dy=".8em" font-weight="bold" y="938.7000000476837" x="1214.5">interface: canceler</text></g></g><g id="minder_node15"><g id="node_expander14" style="cursor: pointer;"><path id="kity_path_315" fill="white" stroke="gray" d="M1374.5,946.5A6,6,0,1,1,1362.5,946.5A6,6,0,1,1,1374.5,946.5"></path><path id="kity_path_316" fill="none" stroke="gray" d="M1364,946.5L1373,946.5"></path></g><path id="node_outline15" fill="none" stroke="none" d="M1379.5,935.5h35a5,5,0,0,1,5,5v12a5,5,0,0,1,-5,5h-35a5,5,0,0,1,-5,-5v-12a5,5,0,0,1,5,-5z" stroke-width="3"></path><g id="node_text15" fill="black"><text id="kity_text_155" text-rendering="inherit" font-size="12" dy=".8em" y="938.7000000476837" x="1384.5">方法</text></g></g><g id="minder_node16"><g id="node_expander12" style="cursor: pointer;" display="none"><path id="kity_path_309" fill="white" stroke="gray" d="M1459.5,920.5A6,6,0,1,1,1447.5,920.5A6,6,0,1,1,1459.5,920.5"></path><path id="kity_path_310" fill="none" stroke="gray"></path></g><path id="node_outline13" fill="none" stroke="none" d="M1464.5,909.5h248a5,5,0,0,1,5,5v12a5,5,0,0,1,-5,5h-248a5,5,0,0,1,-5,-5v-12a5,5,0,0,1,5,-5z" stroke-width="3"></path><g id="node_text13" fill="black"><text id="kity_text_151" text-rendering="inherit" font-size="12" dy=".8em" y="912.7000000476837" x="1469.5">cancel(removeFromParent bool, err error)</text></g></g><g id="minder_node17"><g id="node_expander13" style="cursor: pointer;" display="none"><path id="kity_path_312" fill="white" stroke="gray" d="M1459.5,972.5A6,6,0,1,1,1447.5,972.5A6,6,0,1,1,1459.5,972.5"></path><path id="kity_path_313" fill="none" stroke="gray"></path></g><path id="node_outline14" fill="none" stroke="none" d="M1464.5,961.5h138a5,5,0,0,1,5,5v12a5,5,0,0,1,-5,5h-138a5,5,0,0,1,-5,-5v-12a5,5,0,0,1,5,-5z" stroke-width="3"></path><g id="node_text14" fill="black"><text id="kity_text_153" text-rendering="inherit" font-size="12" dy=".8em" y="964.7000000476837" x="1469.5">Done() &lt;-chan struct{}</text></g></g><g id="minder_node18"><g id="node_expander18" style="cursor: pointer;"><path id="kity_path_327" fill="white" stroke="gray" d="M1204.5,1024.5A6,6,0,1,1,1192.5,1024.5A6,6,0,1,1,1204.5,1024.5"></path><path id="kity_path_328" fill="none" stroke="gray" d="M1194,1024.5L1203,1024.5"></path></g><path id="node_outline19" fill="none" stroke="none" d="M1209.5,1013.5h118a5,5,0,0,1,5,5v12a5,5,0,0,1,-5,5h-118a5,5,0,0,1,-5,-5v-12a5,5,0,0,1,5,-5z" stroke-width="3"></path><g id="node_text19" fill="black"><text id="kity_text_163" text-rendering="inherit" font-size="12" dy=".8em" font-weight="bold" y="1016.7000000476837" x="1214.5">interface: stringer</text></g></g><g id="minder_node19"><g id="node_expander17" style="cursor: pointer;"><path id="kity_path_324" fill="white" stroke="gray" d="M1372.5,1024.5A6,6,0,1,1,1360.5,1024.5A6,6,0,1,1,1372.5,1024.5"></path><path id="kity_path_325" fill="none" stroke="gray" d="M1362,1024.5L1371,1024.5"></path></g><path id="node_outline18" fill="none" stroke="none" d="M1377.5,1013.5h35a5,5,0,0,1,5,5v12a5,5,0,0,1,-5,5h-35a5,5,0,0,1,-5,-5v-12a5,5,0,0,1,5,-5z" stroke-width="3"></path><g id="node_text18" fill="black"><text id="kity_text_161" text-rendering="inherit" font-size="12" dy=".8em" y="1016.7000000476837" x="1382.5">方法</text></g></g><g id="minder_node20"><g id="node_expander16" style="cursor: pointer;" display="none"><path id="kity_path_321" fill="white" stroke="gray" d="M1457.5,1024.5A6,6,0,1,1,1445.5,1024.5A6,6,0,1,1,1457.5,1024.5"></path><path id="kity_path_322" fill="none" stroke="gray"></path></g><path id="node_outline17" fill="none" stroke="none" d="M1462.5,1013.5h52a5,5,0,0,1,5,5v12a5,5,0,0,1,-5,5h-52a5,5,0,0,1,-5,-5v-12a5,5,0,0,1,5,-5z" stroke-width="3"></path><g id="node_text17" fill="black"><text id="kity_text_159" text-rendering="inherit" font-size="12" dy=".8em" y="1016.7000000476837" x="1467.5">String()</text></g></g><g id="minder_node21"><g id="node_expander47" style="cursor: pointer;"><path id="kity_path_414" fill="white" stroke="gray" d="M764.5,499.5A6,6,0,1,1,752.5,499.5A6,6,0,1,1,764.5,499.5"></path><path id="kity_path_415" fill="none" stroke="gray" d="M754,499.5L763,499.5"></path></g><path id="node_outline48" fill="rgb(238, 243, 246)" stroke="rgb(115, 161, 191)" d="M671.5,486.5h77a3,3,0,0,1,3,3v20a3,3,0,0,1,-3,3h-77a3,3,0,0,1,-3,-3v-20a3,3,0,0,1,3,-3z" stroke-width="1"></path><g id="node_text48" fill="black"><text id="kity_text_221" text-rendering="inherit" font-size="14" dy=".8em" y="490.40000009536743" x="688.5">结构体</text></g></g><g id="minder_node22"><g id="node_expander30" style="cursor: pointer;"><path id="kity_path_363" fill="white" stroke="gray" d="M640.5,213.5A6,6,0,1,1,628.5,213.5A6,6,0,1,1,640.5,213.5"></path><path id="kity_path_364" fill="none" stroke="gray" d="M630,213.5L639,213.5"></path></g><path id="node_outline31" fill="none" stroke="none" d="M513.5,202.5h110a5,5,0,0,1,5,5v12a5,5,0,0,1,-5,5h-110a5,5,0,0,1,-5,-5v-12a5,5,0,0,1,5,-5z" stroke-width="3"></path><g id="node_text31" fill="black"><text id="kity_text_187" text-rendering="inherit" font-size="12" dy=".8em" font-weight="bold" y="205.70000004768372" x="518.5">struct: cancelCtx</text></g></g><g id="minder_node23"><g id="node_expander24" style="cursor: pointer;"><path id="kity_path_345" fill="white" stroke="gray" d="M480.5,109.5A6,6,0,1,1,468.5,109.5A6,6,0,1,1,480.5,109.5"></path><path id="kity_path_346" fill="none" stroke="gray" d="M470,109.5L479,109.5"></path></g><path id="node_outline25" fill="none" stroke="none" d="M428.5,98.5h35a5,5,0,0,1,5,5v12a5,5,0,0,1,-5,5h-35a5,5,0,0,1,-5,-5v-12a5,5,0,0,1,5,-5z" stroke-width="3"></path><g id="node_text25" fill="black"><text id="kity_text_175" text-rendering="inherit" font-size="12" dy=".8em" y="101.70000004768372" x="433.5">字段</text></g></g><g id="minder_node24"><g id="node_expander20" style="cursor: pointer;" display="none"><path id="kity_path_333" fill="white" stroke="gray" d="M395.5,31.5A6,6,0,1,1,383.5,31.5A6,6,0,1,1,395.5,31.5"></path><path id="kity_path_334" fill="none" stroke="gray"></path></g><path id="node_outline21" fill="none" stroke="none" d="M320.5,20.5h58a5,5,0,0,1,5,5v12a5,5,0,0,1,-5,5h-58a5,5,0,0,1,-5,-5v-12a5,5,0,0,1,5,-5z" stroke-width="3"></path><g id="node_text21" fill="black"><text id="kity_text_167" text-rendering="inherit" font-size="12" dy=".8em" font-weight="bold" y="23.700000047683716" x="325.5">Context</text></g></g><g id="minder_node25"><g id="node_expander21" style="cursor: pointer;" display="none"><path id="kity_path_336" fill="white" stroke="gray" d="M395.5,83.5A6,6,0,1,1,383.5,83.5A6,6,0,1,1,395.5,83.5"></path><path id="kity_path_337" fill="none" stroke="gray"></path></g><path id="node_outline22" fill="none" stroke="none" d="M281.5,72.5h97a5,5,0,0,1,5,5v12a5,5,0,0,1,-5,5h-97a5,5,0,0,1,-5,-5v-12a5,5,0,0,1,5,-5z" stroke-width="3"></path><g id="node_text22" fill="black"><text id="kity_text_169" text-rendering="inherit" font-size="12" dy=".8em" y="75.70000004768372" x="286.5">mu sync.Mutex</text></g></g><g id="minder_node26"><g id="node_expander22" style="cursor: pointer;" display="none"><path id="kity_path_339" fill="white" stroke="gray" d="M395.5,135.5A6,6,0,1,1,383.5,135.5A6,6,0,1,1,395.5,135.5"></path><path id="kity_path_340" fill="none" stroke="gray"></path></g><path id="node_outline23" fill="none" stroke="none" d="M193.5,124.5h185a5,5,0,0,1,5,5v12a5,5,0,0,1,-5,5h-185a5,5,0,0,1,-5,-5v-12a5,5,0,0,1,5,-5z" stroke-width="3"></path><g id="node_text23" fill="black"><text id="kity_text_171" text-rendering="inherit" font-size="12" dy=".8em" y="127.70000004768372" x="198.5">children map[canceler]struct{}&#xa0;</text></g></g><g id="minder_node27"><g id="node_expander23" style="cursor: pointer;" display="none"><path id="kity_path_342" fill="white" stroke="gray" d="M395.5,187.5A6,6,0,1,1,383.5,187.5A6,6,0,1,1,395.5,187.5"></path><path id="kity_path_343" fill="none" stroke="gray"></path></g><path id="node_outline24" fill="none" stroke="none" d="M320.5,176.5h58a5,5,0,0,1,5,5v12a5,5,0,0,1,-5,5h-58a5,5,0,0,1,-5,-5v-12a5,5,0,0,1,5,-5z" stroke-width="3"></path><g id="node_text24" fill="black"><text id="kity_text_173" text-rendering="inherit" font-size="12" dy=".8em" y="179.70000004768372" x="325.5">err error</text></g></g><g id="minder_node28"><g id="node_expander29" style="cursor: pointer;"><path id="kity_path_360" fill="white" stroke="gray" d="M480.5,317.5A6,6,0,1,1,468.5,317.5A6,6,0,1,1,480.5,317.5"></path><path id="kity_path_361" fill="none" stroke="gray" d="M470,317.5L479,317.5"></path></g><path id="node_outline30" fill="none" stroke="none" d="M376.5,306.5h87a5,5,0,0,1,5,5v12a5,5,0,0,1,-5,5h-87a5,5,0,0,1,-5,-5v-12a5,5,0,0,1,5,-5z" stroke-width="3"></path><g id="node_text30" fill="black"><text id="kity_text_185" text-rendering="inherit" font-size="12" dy=".8em" y="309.7000000476837" x="381.5">实现接口/方法</text></g></g><g id="minder_node29"><g id="node_expander25" style="cursor: pointer;" display="none"><path id="kity_path_348" fill="white" stroke="gray" d="M343.5,239.5A6,6,0,1,1,331.5,239.5A6,6,0,1,1,343.5,239.5"></path><path id="kity_path_349" fill="none" stroke="gray"></path></g><path id="node_outline26" fill="none" stroke="none" d="M266.5,228.5h60a5,5,0,0,1,5,5v12a5,5,0,0,1,-5,5h-60a5,5,0,0,1,-5,-5v-12a5,5,0,0,1,5,-5z" stroke-width="3"></path><g id="node_text26" fill="black"><text id="kity_text_177" text-rendering="inherit" font-size="12" dy=".8em" font-weight="bold" y="231.70000004768372" x="271.5">canceler</text></g></g><g id="minder_node30"><g id="node_expander26" style="cursor: pointer;" display="none"><path id="kity_path_351" fill="white" stroke="gray" d="M343.5,291.5A6,6,0,1,1,331.5,291.5A6,6,0,1,1,343.5,291.5"></path><path id="kity_path_352" fill="none" stroke="gray"></path></g><path id="node_outline27" fill="none" stroke="none" d="M221.5,280.5h105a5,5,0,0,1,5,5v12a5,5,0,0,1,-5,5h-105a5,5,0,0,1,-5,-5v-12a5,5,0,0,1,5,-5z" stroke-width="3"></path><g id="node_text27" fill="black"><text id="kity_text_179" text-rendering="inherit" font-size="12" dy=".8em" y="283.7000000476837" x="226.5">Context: Err() err</text></g></g><g id="minder_node31"><g id="node_expander27" style="cursor: pointer;" display="none"><path id="kity_path_354" fill="white" stroke="gray" d="M343.5,343.5A6,6,0,1,1,331.5,343.5A6,6,0,1,1,343.5,343.5"></path><path id="kity_path_355" fill="none" stroke="gray"></path></g><path id="node_outline28" fill="none" stroke="none" d="M82.5,332.5h244a5,5,0,0,1,5,5v12a5,5,0,0,1,-5,5h-244a5,5,0,0,1,-5,-5v-12a5,5,0,0,1,5,-5z" stroke-width="3"></path><g id="node_text28" fill="black"><text id="kity_text_181" text-rendering="inherit" font-size="12" dy=".8em" y="335.7000000476837" x="87.5">Context: Value(key interface{}) interface{}</text></g></g><g id="minder_node32"><g id="node_expander28" style="cursor: pointer;" display="none"><path id="kity_path_357" fill="white" stroke="gray" d="M343.5,395.5A6,6,0,1,1,331.5,395.5A6,6,0,1,1,343.5,395.5"></path><path id="kity_path_358" fill="none" stroke="gray"></path></g><path id="node_outline29" fill="none" stroke="none" d="M268.5,384.5h58a5,5,0,0,1,5,5v12a5,5,0,0,1,-5,5h-58a5,5,0,0,1,-5,-5v-12a5,5,0,0,1,5,-5z" stroke-width="3"></path><g id="node_text29" fill="black"><text id="kity_text_183" text-rendering="inherit" font-size="12" dy=".8em" font-weight="bold" y="387.7000000476837" x="273.5">stringer</text></g></g><g id="minder_node33"><g id="node_expander37" style="cursor: pointer;"><path id="kity_path_384" fill="white" stroke="gray" d="M640.5,525.5A6,6,0,1,1,628.5,525.5A6,6,0,1,1,640.5,525.5"></path><path id="kity_path_385" fill="none" stroke="gray" d="M630,525.5L639,525.5"></path></g><path id="node_outline38" fill="none" stroke="none" d="M518.5,514.5h105a5,5,0,0,1,5,5v12a5,5,0,0,1,-5,5h-105a5,5,0,0,1,-5,-5v-12a5,5,0,0,1,5,-5z" stroke-width="3"></path><g id="node_text38" fill="black"><text id="kity_text_201" text-rendering="inherit" font-size="12" dy=".8em" font-weight="bold" y="517.7000000476837" x="523.5">struct: valueCtx</text></g></g><g id="minder_node34"><g id="node_expander33" style="cursor: pointer;"><path id="kity_path_372" fill="white" stroke="gray" d="M485.5,473.5A6,6,0,1,1,473.5,473.5A6,6,0,1,1,485.5,473.5"></path><path id="kity_path_373" fill="none" stroke="gray" d="M475,473.5L484,473.5"></path></g><path id="node_outline34" fill="none" stroke="none" d="M433.5,462.5h35a5,5,0,0,1,5,5v12a5,5,0,0,1,-5,5h-35a5,5,0,0,1,-5,-5v-12a5,5,0,0,1,5,-5z" stroke-width="3"></path><g id="node_text34" fill="black"><text id="kity_text_193" text-rendering="inherit" font-size="12" dy=".8em" y="465.7000000476837" x="438.5">字段</text></g></g><g id="minder_node35"><g id="node_expander31" style="cursor: pointer;" display="none"><path id="kity_path_366" fill="white" stroke="gray" d="M400.5,447.5A6,6,0,1,1,388.5,447.5A6,6,0,1,1,400.5,447.5"></path><path id="kity_path_367" fill="none" stroke="gray"></path></g><path id="node_outline32" fill="none" stroke="none" d="M325.5,436.5h58a5,5,0,0,1,5,5v12a5,5,0,0,1,-5,5h-58a5,5,0,0,1,-5,-5v-12a5,5,0,0,1,5,-5z" stroke-width="3"></path><g id="node_text32" fill="black"><text id="kity_text_189" text-rendering="inherit" font-size="12" dy=".8em" font-weight="bold" y="439.7000000476837" x="330.5">Context</text></g></g><g id="minder_node36"><g id="node_expander32" style="cursor: pointer;" display="none"><path id="kity_path_369" fill="white" stroke="gray" d="M400.5,499.5A6,6,0,1,1,388.5,499.5A6,6,0,1,1,400.5,499.5"></path><path id="kity_path_370" fill="none" stroke="gray"></path></g><path id="node_outline33" fill="none" stroke="none" d="M269.5,488.5h114a5,5,0,0,1,5,5v12a5,5,0,0,1,-5,5h-114a5,5,0,0,1,-5,-5v-12a5,5,0,0,1,5,-5z" stroke-width="3"></path><g id="node_text33" fill="black"><text id="kity_text_191" text-rendering="inherit" font-size="12" dy=".8em" y="491.7000000476837" x="274.5">key, val interface{}</text></g></g><g id="minder_node37"><g id="node_expander36" style="cursor: pointer;"><path id="kity_path_381" fill="white" stroke="gray" d="M485.5,577.5A6,6,0,1,1,473.5,577.5A6,6,0,1,1,485.5,577.5"></path><path id="kity_path_382" fill="none" stroke="gray" d="M475,577.5L484,577.5"></path></g><path id="node_outline37" fill="none" stroke="none" d="M381.5,566.5h87a5,5,0,0,1,5,5v12a5,5,0,0,1,-5,5h-87a5,5,0,0,1,-5,-5v-12a5,5,0,0,1,5,-5z" stroke-width="3"></path><g id="node_text37" fill="black"><text id="kity_text_199" text-rendering="inherit" font-size="12" dy=".8em" y="569.7000000476837" x="386.5">实现接口/方法</text></g></g><g id="minder_node38"><g id="node_expander34" style="cursor: pointer;" display="none"><path id="kity_path_375" fill="white" stroke="gray" d="M348.5,551.5A6,6,0,1,1,336.5,551.5A6,6,0,1,1,348.5,551.5"></path><path id="kity_path_376" fill="none" stroke="gray"></path></g><path id="node_outline35" fill="none" stroke="none" d="M95.5,540.5h236a5,5,0,0,1,5,5v12a5,5,0,0,1,-5,5h-236a5,5,0,0,1,-5,-5v-12a5,5,0,0,1,5,-5z" stroke-width="3"></path><g id="node_text35" fill="black"><text id="kity_text_195" text-rendering="inherit" font-size="12" dy=".8em" y="543.7000000476837" x="100.5">Context: Value(key interface{}) interface</text></g></g><g id="minder_node39"><g id="node_expander35" style="cursor: pointer;" display="none"><path id="kity_path_378" fill="white" stroke="gray" d="M348.5,603.5A6,6,0,1,1,336.5,603.5A6,6,0,1,1,348.5,603.5"></path><path id="kity_path_379" fill="none" stroke="gray"></path></g><path id="node_outline36" fill="none" stroke="none" d="M273.5,592.5h58a5,5,0,0,1,5,5v12a5,5,0,0,1,-5,5h-58a5,5,0,0,1,-5,-5v-12a5,5,0,0,1,5,-5z" stroke-width="3"></path><g id="node_text36" fill="black"><text id="kity_text_197" text-rendering="inherit" font-size="12" dy=".8em" font-weight="bold" y="595.7000000476837" x="278.5">stringer</text></g></g><g id="minder_node40"><g id="node_expander46" style="cursor: pointer;"><path id="kity_path_411" fill="white" stroke="gray" d="M640.5,785.5A6,6,0,1,1,628.5,785.5A6,6,0,1,1,640.5,785.5"></path><path id="kity_path_412" fill="none" stroke="gray" d="M630,785.5L639,785.5"></path></g><path id="node_outline47" fill="none" stroke="none" d="M518.5,774.5h105a5,5,0,0,1,5,5v12a5,5,0,0,1,-5,5h-105a5,5,0,0,1,-5,-5v-12a5,5,0,0,1,5,-5z" stroke-width="3"></path><g id="node_text47" fill="black"><text id="kity_text_219" text-rendering="inherit" font-size="12" dy=".8em" font-weight="bold" y="777.7000000476837" x="523.5">struct: timerCtx</text></g></g><g id="minder_node41"><g id="node_expander41" style="cursor: pointer;"><path id="kity_path_396" fill="white" stroke="gray" d="M485.5,707.5A6,6,0,1,1,473.5,707.5A6,6,0,1,1,485.5,707.5"></path><path id="kity_path_397" fill="none" stroke="gray" d="M475,707.5L484,707.5"></path></g><path id="node_outline42" fill="none" stroke="none" d="M433.5,696.5h35a5,5,0,0,1,5,5v12a5,5,0,0,1,-5,5h-35a5,5,0,0,1,-5,-5v-12a5,5,0,0,1,5,-5z" stroke-width="3"></path><g id="node_text42" fill="black"><text id="kity_text_209" text-rendering="inherit" font-size="12" dy=".8em" y="699.7000000476837" x="438.5">字段</text></g></g><g id="minder_node42"><g id="node_expander38" style="cursor: pointer;" display="none"><path id="kity_path_387" fill="white" stroke="gray" d="M400.5,655.5A6,6,0,1,1,388.5,655.5A6,6,0,1,1,400.5,655.5"></path><path id="kity_path_388" fill="none" stroke="gray"></path></g><path id="node_outline39" fill="none" stroke="none" d="M315.5,644.5h68a5,5,0,0,1,5,5v12a5,5,0,0,1,-5,5h-68a5,5,0,0,1,-5,-5v-12a5,5,0,0,1,5,-5z" stroke-width="3"></path><g id="node_text39" fill="black"><text id="kity_text_203" text-rendering="inherit" font-size="12" dy=".8em" font-weight="bold" y="647.7000000476837" x="320.5">cancelCtx</text></g></g><g id="minder_node43"><g id="node_expander39" style="cursor: pointer;" display="none"><path id="kity_path_390" fill="white" stroke="gray" d="M400.5,707.5A6,6,0,1,1,388.5,707.5A6,6,0,1,1,400.5,707.5"></path><path id="kity_path_391" fill="none" stroke="gray"></path></g><path id="node_outline40" fill="none" stroke="none" d="M268.5,696.5h115a5,5,0,0,1,5,5v12a5,5,0,0,1,-5,5h-115a5,5,0,0,1,-5,-5v-12a5,5,0,0,1,5,-5z" stroke-width="3"></path><g id="node_text40" fill="black"><text id="kity_text_205" text-rendering="inherit" font-size="12" dy=".8em" y="699.7000000476837" x="273.5">timer * time.Timer</text></g></g><g id="minder_node44"><g id="node_expander40" style="cursor: pointer;" display="none"><path id="kity_path_393" fill="white" stroke="gray" d="M400.5,759.5A6,6,0,1,1,388.5,759.5A6,6,0,1,1,400.5,759.5"></path><path id="kity_path_394" fill="none" stroke="gray"></path></g><path id="node_outline41" fill="none" stroke="none" d="M263.5,748.5h120a5,5,0,0,1,5,5v12a5,5,0,0,1,-5,5h-120a5,5,0,0,1,-5,-5v-12a5,5,0,0,1,5,-5z" stroke-width="3"></path><g id="node_text41" fill="black"><text id="kity_text_207" text-rendering="inherit" font-size="12" dy=".8em" y="751.7000000476837" x="268.5">deadline time.Time</text></g></g><g id="minder_node45"><g id="node_expander45" style="cursor: pointer;"><path id="kity_path_408" fill="white" stroke="gray" d="M485.5,863.5A6,6,0,1,1,473.5,863.5A6,6,0,1,1,485.5,863.5"></path><path id="kity_path_409" fill="none" stroke="gray" d="M475,863.5L484,863.5"></path></g><path id="node_outline46" fill="none" stroke="none" d="M381.5,852.5h87a5,5,0,0,1,5,5v12a5,5,0,0,1,-5,5h-87a5,5,0,0,1,-5,-5v-12a5,5,0,0,1,5,-5z" stroke-width="3"></path><g id="node_text46" fill="black"><text id="kity_text_217" text-rendering="inherit" font-size="12" dy=".8em" y="855.7000000476837" x="386.5">实现接口/方法</text></g></g><g id="minder_node46"><g id="node_expander42" style="cursor: pointer;" display="none"><path id="kity_path_399" fill="white" stroke="gray" d="M348.5,811.5A6,6,0,1,1,336.5,811.5A6,6,0,1,1,348.5,811.5"></path><path id="kity_path_400" fill="none" stroke="gray"></path></g><path id="node_outline43" fill="none" stroke="none" d="M39.5,800.5h292a5,5,0,0,1,5,5v12a5,5,0,0,1,-5,5h-292a5,5,0,0,1,-5,-5v-12a5,5,0,0,1,5,-5z" stroke-width="3"></path><g id="node_text43" fill="black"><text id="kity_text_211" text-rendering="inherit" font-size="12" dy=".8em" y="803.7000000476837" x="44.5">Context: Deadline() (deadline time.Time, ok bool)</text></g></g><g id="minder_node47"><g id="node_expander43" style="cursor: pointer;" display="none"><path id="kity_path_402" fill="white" stroke="gray" d="M348.5,863.5A6,6,0,1,1,336.5,863.5A6,6,0,1,1,348.5,863.5"></path><path id="kity_path_403" fill="none" stroke="gray"></path></g><path id="node_outline44" fill="none" stroke="none" d="M25.5,852.5h306a5,5,0,0,1,5,5v12a5,5,0,0,1,-5,5h-306a5,5,0,0,1,-5,-5v-12a5,5,0,0,1,5,-5z" stroke-width="3"></path><g id="node_text44" fill="black"><text id="kity_text_213" text-rendering="inherit" font-size="12" dy=".8em" y="855.7000000476837" x="30.5">canceler: cancel(removeFromParent bool, err error)&#xa0;</text></g></g><g id="minder_node48"><g id="node_expander44" style="cursor: pointer;" display="none"><path id="kity_path_405" fill="white" stroke="gray" d="M348.5,915.5A6,6,0,1,1,336.5,915.5A6,6,0,1,1,348.5,915.5"></path><path id="kity_path_406" fill="none" stroke="gray"></path></g><path id="node_outline45" fill="none" stroke="none" d="M273.5,904.5h58a5,5,0,0,1,5,5v12a5,5,0,0,1,-5,5h-58a5,5,0,0,1,-5,-5v-12a5,5,0,0,1,5,-5z" stroke-width="3"></path><g id="node_text45" fill="black"><text id="kity_text_215" text-rendering="inherit" font-size="12" dy=".8em" font-weight="bold" y="907.7000000476837" x="278.5">stringer</text></g></g><g id="minder_node49"><g id="node_expander49" style="cursor: pointer;"><path id="kity_path_420" fill="white" stroke="gray" d="M764.5,1033.5A6,6,0,1,1,752.5,1033.5A6,6,0,1,1,764.5,1033.5"></path><path id="kity_path_421" fill="none" stroke="gray" d="M754,1033.5L763,1033.5"></path></g><path id="node_outline50" fill="rgb(238, 243, 246)" stroke="rgb(115, 161, 191)" d="M684.5,1020.5h64a3,3,0,0,1,3,3v20a3,3,0,0,1,-3,3h-64a3,3,0,0,1,-3,-3v-20a3,3,0,0,1,3,-3z" stroke-width="1"></path><g id="node_text50" fill="black"><text id="kity_text_225" text-rendering="inherit" font-size="14" dy=".8em" y="1024.4000000953674" x="701.5">type</text></g></g><g id="minder_node50"><g id="node_expander48" style="cursor: pointer;" display="none"><path id="kity_path_417" fill="white" stroke="gray" d="M653.5,1033.5A6,6,0,1,1,641.5,1033.5A6,6,0,1,1,653.5,1033.5"></path><path id="kity_path_418" fill="none" stroke="gray"></path></g><path id="node_outline49" fill="none" stroke="none" d="M524.5,1022.5h112a5,5,0,0,1,5,5v12a5,5,0,0,1,-5,5h-112a5,5,0,0,1,-5,-5v-12a5,5,0,0,1,5,-5z" stroke-width="3"></path><g id="node_text49" fill="black"><text id="kity_text_223" text-rendering="inherit" font-size="12" dy=".8em" y="1025.7000000476837" x="529.5">CancelFunc func()</text></g></g></g></g></svg>